<svg xmlns="http://www.w3.org/2000/svg" viewBox="0 0 398.13932 109.178"><path d="M26.282,45.36647a14.02727,14.02727,0,0,0-3.41834-3.99115c-.11938-.09149-.24615-.17023-.3681-.25726-.05572.12341-.11969.24206-.17181.36761a14.0854,14.0854,0,0,0-.96765,5.22248c-.00092.05023-.0008.10016-.00159.15033.00079.05017.00067.10009.00159.15033a14.08535,14.08535,0,0,0,.96765,5.22247,22.18064,22.18064,0,0,0,1.34991,2.60754,22.86632,22.86632,0,0,0,3.04187-.13458,13.22383,13.22383,0,0,0,4.17871-1.34918Z" style="fill:#00d8ff"/><path d="M56.18906,41.25337l-9.70831,5.60511L55.9976,52.353l4.06884-7.04748-.01257-.00727a20.63572,20.63572,0,0,0,1.89832-4.01477,10.98749,10.98749,0,0,0,.45092-2.31427,10.98913,10.98913,0,0,0-2.31427.45093A20.28554,20.28554,0,0,0,56.18906,41.25337Z" style="fill:#00d8ff"/><path d="M32.74912,52.353l9.51679-5.4945-9.59381-5.539-.00074.00129q-.47232-.2698-.94928-.53485a14.08567,14.08567,0,0,0-5.00659-1.7732c-.12347-.01617-.24689-.01947-.37036-.032a10.97367,10.97367,0,0,0,.4494,2.30279,20.63514,20.63514,0,0,0,1.89832,4.01477l-.01258.00727Z" style="fill:#00d8ff"/><path d="M45.427,34.024V45.0334l9.59387-5.53906-.00073-.00122q.46975-.2742.9378-.55469a14.08542,14.08542,0,0,0,4.03894-3.44922c.077-.10052.14277-.20758.21662-.30993A11.02189,11.02189,0,0,0,57.958,34.402a20.63434,20.63434,0,0,0-4.42608-.3634V34.024Z" style="fill:#00d8ff"/><path d="M28.50272,35.15846a11.03932,11.03932,0,0,0,1.571,1.80921,20.26487,20.26487,0,0,0,3.53045,2.45648l9.7154,5.60919V34.024H35.04056a20.29084,20.29084,0,0,0-4.29455.36225A11.00535,11.00535,0,0,0,28.50272,35.15846Z" style="fill:#00d8ff"/><path d="M42.18858,66.42287a10.99619,10.99619,0,0,0,.76886-2.23523A20.27029,20.27029,0,0,0,43.31962,59.9V48.68355l-9.51679,5.49451,4.126,7.14654a20.26728,20.26728,0,0,0,2.458,3.533A11.02524,11.02524,0,0,0,42.18858,66.42287Z" style="fill:#00d8ff"/><path d="M45.427,48.68355v11.078h.00146c.00171.36261.00477.72553.01148,1.08948a14.08575,14.08575,0,0,0,.96765,5.22247c.04852.11682.10828.22718.15991.34217a11.008,11.008,0,0,0,1.7923-1.55805A20.273,20.273,0,0,0,50.81821,61.324l4.12568-7.14593Z" style="fill:#00d8ff"/><path d="M59.99692,58.22774a13.22392,13.22392,0,0,0-3.25775-2.94428l-4.02752,6.97583.00128.00074q-.26981.47232-.53485.94928a14.08567,14.08567,0,0,0-1.7732,5.00659c-.01629.12463-.01965.2492-.03234.37384.12457-.0127.24914-.01605.37377-.03235a14.08607,14.08607,0,0,0,5.0066-1.77325c.04431-.02448.08783-.04981.13208-.07441.04272-.02557.08563-.05023.12835-.07592a14.08571,14.08571,0,0,0,4.03894-3.44922A21.88906,21.88906,0,0,0,61.611,60.75423,22.57249,22.57249,0,0,0,59.99692,58.22774Z" style="fill:#00d8ff"/><path d="M38.34183,68.2159a14.08546,14.08546,0,0,0-1.77319-5.00659q-.26432-.47783-.53485-.94928l.00128-.00074-4.03149-6.98278a16.27994,16.27994,0,0,0-1.92981,1.47277,15.8925,15.8925,0,0,0-2.94428,3.99414,21.96368,21.96368,0,0,0,1.56494,2.44117,14.08575,14.08575,0,0,0,4.03895,3.44922c.043.02594.08636.05078.12945.07653.04382.02442.087.0495.13092.0738a14.0868,14.0868,0,0,0,5.00665,1.77325c.12464.0163.24921.01965.37378.03235C38.36149,68.4651,38.35813,68.34053,38.34183,68.2159Z" style="fill:#00d8ff"/><path d="M88.57432,36.99519A27.51349,27.51349,0,0,0,74.70237,13.22725l-16.81024-9.604a27.52355,27.52355,0,0,0-27.52027.12719L13.64854,13.51A27.51516,27.51516,0,0,0,.00028,37.40828L.09037,56.76582A27.52435,27.52435,0,0,0,13.96232,80.54l16.81024,9.601a27.52911,27.52911,0,0,0,27.52325-.12738L75.016,80.25411A27.51856,27.51856,0,0,0,88.66434,56.35573Zm-15.115,25.82367c-.079.18152-.1673.35083-.25916.51545A5.2181,5.2181,0,0,1,71.525,65.21523a5.32419,5.32419,0,0,1-1.28418.63165c-.13049.04828-.26068.089-.39075.12616-.04577.0152-.0924.02862-.13855.04315-.04419.01068-.08618.03107-.13049.04059a15.54886,15.54886,0,0,1-4.38055.50476,16.24061,16.24061,0,0,0-5.05628.55389,17.29876,17.29876,0,0,0-6.03961,3.48694,16.24052,16.24052,0,0,0-3.00781,4.10193,14.27182,14.27182,0,0,1-3.05347,3.91864,5.63327,5.63327,0,0,1-.54693.43451c-.03882.027-.0824.04181-.12177.06763a5.0743,5.0743,0,0,1-.81146.45044l-.01868.00732a5.28776,5.28776,0,0,1-1.39734.38092c-.06244.00891-.12378.02008-.18719.0268l-.04022.00518c-.02186.00208-.04194.00715-.064.009-.02893.00244-.05664-.00342-.08551-.00147-.05109.00366-.10248.00556-.15393.00781-.04651.002-.09235.00623-.13886.007l-.01129.00055c-.0296.00043-.05755.0044-.08728.0044l-.00555.0003-.00556-.0003c-.0296,0-.05737-.00391-.08673-.00434-.10235-.00171-.20367-.00811-.30462-.01544-.02887-.00195-.05658.00391-.08551.00147-.022-.00183-.04212-.0069-.064-.009l-.04028-.00518c-.06323-.00672-.12451-.01783-.18677-.02674l-.05469-.00769c-.02411-.00366-.048-.00616-.07208-.01013a5.14283,5.14283,0,0,1-2.4137-1.04242c-.0971-.07062-.19024-.14777-.28424-.22351-.01593-.014-.03363-.02521-.04943-.03937a14.20973,14.20973,0,0,1-3.07581-3.9364,16.23929,16.23929,0,0,0-3.00787-4.10193,17.29779,17.29779,0,0,0-6.03955-3.48694,16.24061,16.24061,0,0,0-5.05628-.55389,15.10346,15.10346,0,0,1-4.56445-.562A5.3055,5.3055,0,0,1,15.93687,64.025a5.36176,5.36176,0,0,1-1.07428-3.17883c-.00086-.03992-.00318-.07923-.00318-.11908a12.09362,12.09362,0,0,1,1.96564-5.72583,16.23909,16.23909,0,0,0,2.04846-4.65583,17.29768,17.29768,0,0,0,0-6.97387,16.23909,16.23909,0,0,0-2.04846-4.65583,13.3081,13.3081,0,0,1-1.93329-5.07251l-.00012-.00213a5.46889,5.46889,0,0,1,1.04523-3.9491,5.16517,5.16517,0,0,1,1.21911-1.152c.01563-.01117.03083-.02307.04651-.034a5.33073,5.33073,0,0,1,.692-.39875c.10907-.0531.2171-.10864.32916-.15387.15411-.06207.30957-.114.46844-.1618l.01215-.00421a9.12767,9.12767,0,0,1,3.038-.618c1.64428-.05329,3.28173.06494,4.92016-.14954A14.08576,14.08576,0,0,0,31.669,25.24654c.04395-.02429.0871-.04938.13092-.07379.04309-.02576.08643-.0506.12946-.07654a14.08675,14.08675,0,0,0,4.039-3.44922c1.00494-1.31165,1.72125-2.78888,2.58954-4.18622a8.8622,8.8622,0,0,1,2.67792-2.765c.0509-.03614.10119-.0727.15344-.10712.11359-.07361.22644-.145.34485-.20953a5.41086,5.41086,0,0,1,.65722-.30725c.07325-.02808.14551-.05561.21985-.08051a5.39118,5.39118,0,0,1,.82984-.21222c.04425-.00757.08807-.01379.1325-.02026.08643-.01276.17151-.0293.25916-.038.09613-.00958.19122-.01049.28674-.01452.02271-.001.04523-.00269.068-.00342.04357-.002.08667-.00574.13037-.00659.01873-.00019.0368-.00281.05554-.00281s.03686.00262.0556.00281l.06586.00128c.04071.00079.08081.00647.12152.00818l.0108.00055c.09564.004.1908.00494.287.01452a5.43023,5.43023,0,0,1,.58264.09034c.06592.01348.12982.03424.19544.05023a5.39573,5.39573,0,0,1,.70117.22424c.12768.05017.25091.1095.37549.16986q.24123.11885.46826.25995c.0849.05219.17657.08649.25928.14392.06555.04547.12133.09638.18377.14362a8.94263,8.94263,0,0,1,2.50861,2.65765c.86835,1.39734,1.58465,2.87457,2.5896,4.18622a14.08675,14.08675,0,0,0,4.039,3.44922c.043.02594.08636.05078.12945.07654.04383.02441.087.0495.13093.07379a14.08576,14.08576,0,0,0,5.00659,1.77325c1.63836.21448,3.27582.09625,4.92016.14954a9.08526,9.08526,0,0,1,3.15192.66669c.02814.00988.05634.02362.08441.034a5.32386,5.32386,0,0,1,1.28418.63166,5.239,5.239,0,0,1,1.574,1.7008c.01562.025.03137.04962.04657.075.01428.02576.02783.05182.04162.07782a5.23811,5.23811,0,0,1,.68592,2.21356A5.322,5.322,0,0,1,73.774,34.0154a9.06174,9.06174,0,0,1-1.0072,3.13452c-.776,1.45068-1.69714,2.80963-2.33056,4.33575a14.08561,14.08561,0,0,0-.96766,5.22248c-.00091.05023-.00079.10016-.00158.15033.00079.05017.00067.10009.00158.15033a14.08556,14.08556,0,0,0,.96766,5.22247c.63342,1.52612,1.55456,2.88507,2.33056,4.33575a9.094,9.094,0,0,1,.996,3.0412A5.28421,5.28421,0,0,1,73.45933,62.81886Z" style="fill:#00d8ff"/><path d="M46.40763,27.64345a13.20788,13.20788,0,0,0-.91986,4.27313h9.19061a14.02969,14.02969,0,0,0,5.16547-.96478c.1289-.05353.25085-.11908.3775-.17645a10.8763,10.8763,0,0,0-1.4953-1.71058,17.29911,17.29911,0,0,0-6.03955-3.48693,15.86953,15.86953,0,0,0-4.92273-.55274A22.27551,22.27551,0,0,0,46.40763,27.64345Z" style="fill:#00d8ff"/><path d="M65.02335,54.84963a15.75745,15.75745,0,0,0,1.96271-4.50422,17.29768,17.29768,0,0,0,0-6.97387,10.99131,10.99131,0,0,0-.76715-2.231c-.11108.07977-.22693.15125-.33588.23474a14.02813,14.02813,0,0,0-3.41827,3.99115L57.84849,53.362a16.27756,16.27756,0,0,0,2.24035.93487A15.9,15.9,0,0,0,65.02335,54.84963Z" style="fill:#00d8ff"/><path d="M28.86015,30.93605a14.08531,14.08531,0,0,0,5.22247.96765c.364.00672.72687.00977,1.08948.01148v.0014h8.095a16.2372,16.2372,0,0,0-.30963-2.38727A15.76106,15.76106,0,0,0,40.99467,25.025a15.90135,15.90135,0,0,0-4.93445.5528,17.29911,17.29911,0,0,0-6.03955,3.48693A10.88158,10.88158,0,0,0,28.523,30.77846C28.63633,30.82936,28.745,30.88826,28.86015,30.93605Z" style="fill:#00d8ff"/><path d="M130.81071,37.81178V37.971l-13.937,35.13379h-6.14746v-.10547l5.2461-12.13574L105.85075,37.971v-.15918h6.25341l5.03418,12.08252a38.92887,38.92887,0,0,1,1.58985,4.60987c.47656-1.748.9541-3.17871,1.43066-4.60987l4.61035-12.08252Z" style="fill:#00d8ff"/><path d="M135.68912,25.41139h22.52247v5.77637h-16.269V41.57448h14.57324v5.61719H141.94254V61.44655h-6.25342Z" style="fill:#00d8ff"/><path d="M162.71891,29.43874a3.6089,3.6089,0,1,1,3.60352,3.44482A3.38291,3.38291,0,0,1,162.71891,29.43874Zm.689,8.373h5.77637V61.44655h-5.77637Z" style="fill:#00d8ff"/><path d="M175.96842,23.29176h5.77637l.05322,38.15479h-5.82959Z" style="fill:#00d8ff"/><path d="M210.04459,48.78151a26.10523,26.10523,0,0,1-.21191,2.75586h-16.958c.74219,3.81543,3.70947,5.8291,7.52539,5.8291a8.91372,8.91372,0,0,0,6.25293-2.22558l2.4375,3.709a13.93436,13.93436,0,0,1-9.2207,3.28613c-7.57813,0-12.77149-5.14062-12.77149-12.55957,0-6.94238,5.03418-12.40039,12.18848-12.40039C205.964,37.176,210.04459,41.68044,210.04459,48.78151Zm-17.11718-1.166h11.65918c-.15918-3.76221-2.38477-5.72315-5.40577-5.72315C196.05436,41.89235,193.56364,43.95925,192.92741,47.6155Z" style="fill:#00d8ff"/><path d="M213.38639,59.38014l2.27832-4.081A12.132,12.132,0,0,0,222.13053,57.26c2.12012,0,3.49707-.95411,3.49707-2.4375,0-1.749-2.22558-2.59668-4.55664-3.49707-3.76367-1.43116-6.67773-3.39161-6.67773-7.26026,0-4.3457,3.86914-6.62451,8.373-6.62451a14.83183,14.83183,0,0,1,7.73731,2.12012L228.48991,43.429a11.92922,11.92922,0,0,0-5.24707-1.37744c-1.80176,0-3.3379.52979-3.3379,2.01367,0,1.53662,1.748,2.4375,4.292,3.33838,4.13379,1.53711,7.10156,3.49756,7.10156,7.419,0,4.39843-3.55078,7.15429-8.74414,7.15429A16.40519,16.40519,0,0,1,213.38639,59.38014Z" style="fill:#00d8ff"/><path d="M271.736,37.81178V62.40065c0,7.57813-5.14063,11.34082-12.40137,11.34082a16.14067,16.14067,0,0,1-10.7041-3.60351l2.22559-4.34571a12.30355,12.30355,0,0,0,8.00195,2.75586c4.293,0,7.04883-2.01367,7.04883-6.041,0-1.21973.05273-2.544.10547-3.86914a10.63749,10.63749,0,0,1-7.84278,3.23242c-6.73047,0-11.34082-5.08692-11.34082-12.29395s4.61035-12.34765,11.23438-12.34765a10.44812,10.44812,0,0,1,8.6914,4.02783l1.166-3.44483Zm-5.56445,11.76465c0-4.18652-2.38477-7.313-6.78321-7.313-4.18652,0-6.67773,3.02051-6.67773,7.313,0,4.292,2.54394,7.3125,6.624,7.3125C263.78678,56.88893,266.17155,53.763,266.17155,49.57643Z" style="fill:#00d8ff"/><path d="M294.4733,38.28883l-1.48437,4.87549a8.85982,8.85982,0,0,0-3.07324-.53027c-3.33887,0-5.61719,2.17285-5.61719,5.93555v12.877h-5.77637V37.81178H282.444l1.1123,3.49756a7.26478,7.26478,0,0,1,6.83692-4.02734A8.01493,8.01493,0,0,1,294.4733,38.28883Z" style="fill:#00d8ff"/><path d="M317.36784,46.18483V61.44655h-3.86817l-1.05957-3.55078a9.754,9.754,0,0,1-8.42676,4.02832c-4.34472,0-7.41894-2.43848-7.41894-6.625,0-5.40479,4.76953-8.37256,11.97656-8.37256,1.21875,0,2.12012.05322,2.96777.10645V45.97292c0-2.438-1.80175-3.65674-4.82226-3.65674a17.69682,17.69682,0,0,0-7.36621,1.90771l-1.64258-4.39843a23.86106,23.86106,0,0,1,9.90918-2.4375C313.65885,37.388,317.36784,40.46169,317.36784,46.18483Zm-5.66993,4.61035a22.71577,22.71577,0,0,0-2.75586-.15869c-4.18652,0-6.624,1.48291-6.624,4.08057,0,1.85449,1.27149,2.86133,3.3916,2.86133C309.10123,57.57839,311.59147,55.08717,311.69791,50.79518Z" style="fill:#00d8ff"/><path d="M348.74284,49.52321c0,7.36572-4.71582,12.50635-11.28711,12.50635a10.75931,10.75931,0,0,1-7.94922-3.28516c.10547,1.64258.10547,3.54981.10547,5.61719v8.74316h-5.77539v-35.293h3.92089l1.11329,3.60352a10.45028,10.45028,0,0,1,8.585-4.18652C343.9733,37.22878,348.74284,42.42214,348.74284,49.52321Zm-5.88184.15918c0-4.39844-2.64941-7.36621-6.624-7.36621-4.08106,0-6.83594,2.91455-6.83594,7.26025,0,4.45117,2.80859,7.41895,6.83594,7.41895C340.21159,56.99538,342.861,53.97487,342.861,49.68239Z" style="fill:#00d8ff"/><path d="M375.50846,46.60866V61.44655h-5.77734V47.08571c0-2.86182-1.21875-4.71631-4.08008-4.71631-3.7627,0-5.72266,3.12647-5.72266,6.88916v12.188H354.151V23.29176h5.77734V37.388c0,1.11279,0,2.17285-.05371,3.60351a8.069,8.069,0,0,1,7.26074-3.81543C372.69987,37.176,375.50846,40.77956,375.50846,46.60866Z" style="fill:#00d8ff"/><path d="M380.22721,59.38014l2.27832-4.081A12.12947,12.12947,0,0,0,388.97135,57.26c2.11914,0,3.49707-.95411,3.49707-2.4375,0-1.749-2.22558-2.59668-4.55762-3.49707-3.76171-1.43116-6.67675-3.39161-6.67675-7.26026,0-4.3457,3.86816-6.62451,8.373-6.62451a14.83428,14.83428,0,0,1,7.73731,2.12012L395.33073,43.429a11.92922,11.92922,0,0,0-5.24707-1.37744c-1.80176,0-3.33887.52979-3.33887,2.01367,0,1.53662,1.749,2.4375,4.293,3.33838,4.13281,1.53711,7.10156,3.49756,7.10156,7.419,0,4.39843-3.55078,7.15429-8.74414,7.15429A16.40292,16.40292,0,0,1,380.22721,59.38014Z" style="fill:#00d8ff"/><path d="M108.99772,88.721h-3.11914v-1.8164h3.11914V82.63112c0-2.92676,1.52588-5.38281,4.84861-5.38281a6.0948,6.0948,0,0,1,3.86526,1.31152l-.94922,1.48047a4.407,4.407,0,0,0-2.67871-.875c-1.83106,0-3.01758,1.17773-3.01758,3.46582v4.27344h4.916V88.721h-4.916v13.05469h-2.06836Z" style="fill:#00d8ff"/><path d="M117.30289,94.3401a7.76451,7.76451,0,1,1,7.73047,7.80567A7.4667,7.4667,0,0,1,117.30289,94.3401Zm13.42627,0a5.66644,5.66644,0,1,0-11.32422,0c0,3.46582,2.30567,5.8877,5.62842,5.8877A5.54233,5.54233,0,0,0,130.72916,94.3401Z" style="fill:#00d8ff"/><path d="M145.81412,87.10573l-.61035,1.81738a5.56367,5.56367,0,0,0-2-.37011c-2.4414,0-4.10254,1.71582-4.10254,4.60937v8.61328h-2.06836V86.90456h1.55957l.40723,2.18652a4.65445,4.65445,0,0,1,4.37354-2.48926A5.93715,5.93715,0,0,1,145.81412,87.10573Z" style="fill:#00d8ff"/><path d="M154.08463,100.093l1.11914-1.7832a7.99889,7.99889,0,0,0,5.187,1.81738c3.15333,0,4.91651-1.918,4.91651-5.48437V78.89675h2.20361V94.676c0,4.84571-2.50879,7.50293-7.12012,7.50293A10.28389,10.28389,0,0,1,154.08463,100.093Z" style="fill:#00d8ff"/><path d="M185.30924,86.90456v14.87109h-1.59375l-.40722-2.59082a5.57554,5.57554,0,0,1-5.05176,2.86035c-3.72949,0-5.4585-2.45605-5.4585-6.08984V86.90456h2.06787v9.084c0,2.42285.94971,4.13867,3.62793,4.13867,2.98389,0,4.74707-2.6582,4.74707-5.82129V86.90456Z" style="fill:#00d8ff"/><path d="M205.85319,94.27272c0,4.57617-3.11914,7.83985-7.4253,7.83985a7.1872,7.1872,0,0,1-5.83156-2.793c.0342,1.14355.06789,2.52343.06789,4.0039v5.8545h-2.06836V86.90456h1.55957l.4409,2.48926a7.1142,7.1142,0,0,1,5.86526-2.792A7.2958,7.2958,0,0,1,205.85319,94.27272Zm-2.06836.10059c0-3.43164-2.27149-5.85449-5.49219-5.85449a5.49749,5.49749,0,0,0-5.73047,5.7539,5.57893,5.57893,0,0,0,5.73047,5.92188C201.51334,100.1946,203.78483,97.77175,203.78483,94.37331Z" style="fill:#00d8ff"/><path d="M221.98991,86.90456v.06738L212.76823,109.178h-2.17041v-.06739l3.32275-7.70508-6.54395-14.43359v-.06738h2.16993l4.30566,9.52148c.373.875.74609,1.71582,1.08594,2.75879.33887-1.043.67773-1.918,1.0166-2.75879l3.89941-9.52148Z" style="fill:#00d8ff"/><path d="M226.362,97.5696V88.721l-2.916-.13476V86.90456h2.916V81.95827h2.06836v4.94629h5.35644V88.721h-5.35644V97.5696c0,1.88476.77929,2.52343,2.10156,2.52343a4.95876,4.95876,0,0,0,2.94922-1.00878l.916,1.54785a6.75827,6.75827,0,0,1-4.06836,1.41308C227.88737,102.04518,226.362,100.6321,226.362,97.5696Z" style="fill:#00d8ff"/><path d="M250.29752,93.73464a10.8174,10.8174,0,0,1-.10156,1.44628H238.193a5.47151,5.47151,0,0,0,5.59473,5.04688,5.84332,5.84332,0,0,0,4.57715-1.81641l1.18652,1.48047a7.93355,7.93355,0,0,1-5.73047,2.25391,7.8078,7.8078,0,0,1-.16894-15.61133C247.82194,86.53444,250.29752,89.39382,250.29752,93.73464Zm-12.03711-.37012h10.002c-.06739-3.16309-1.89844-4.91211-4.64453-4.91211A5.35881,5.35881,0,0,0,238.26041,93.36452Z" style="fill:#00d8ff"/><path d="M263.07682,87.10573l-.61035,1.81738a5.56371,5.56371,0,0,0-2-.37011c-2.44141,0-4.10254,1.71582-4.10254,4.60937v8.61328h-2.06836V86.90456h1.55957l.40723,2.18652a4.65418,4.65418,0,0,1,4.373-2.48926A5.9396,5.9396,0,0,1,263.07682,87.10573Z" style="fill:#00d8ff"/></svg>